{"title":"The.Incredibles.Hindi.Bluray.720p.DjVikas.HD DESI ROCKERS.","uid":5603951,"size":1906343489,"categoryP":"video","categoryS":"hd___movies","magnet":"?xt=urn:btih:b327aae4030102e585921a950a4f15b504e45f75&amp;dn=The.Incredibles.Hindi.Bluray.720p.DjVikas.HD+DESI+ROCKERS.&amp;tr=udp%3A%2F%2Ftracker.openbittorrent.com%3A80&amp;tr=udp%3A%2F%2Fopen.demonii.com%3A1337&amp;tr=udp%3A%2F%2Ftracker.coppersurfer.tk%3A6969&amp;tr=udp%3A%2F%2Fexodus.desync.com%3A6969","seeders":1,"leechers":0,"uploader":"djvikas","files":17,"time":1275477352,"description":"                          HD DESI ROCKERS RELEASES \n===========================================================================\n\nMovie name   : The.Incredibles.Bluray720p.x264.Hindi.DjVikas\n\n\nFormat                           : Matroska\nFile size                        : 1.75 GiB\nDuration                         : 1h 55mn\nOverall bit rate                 : 2 180 Kbps\n                      : \n\nVideo\nID                               : 1\nFormat                           : AVC\nFormat/Info                      : Advanced Video Codec\nFormat profile                   : &lt;a class=&quot;__cf_email__&quot; href=&quot;/cdn-cgi/l/email-protection&quot; data-cfemail=&quot;236b4a444b636f170d12&quot;&gt;[email&amp;#160;protected]&lt;/a&gt;&lt;script cf-hash='f9e31' type=&quot;text/javascript&quot;&gt;\n/* &lt;![CDATA[ */!function(){try{var t=&quot;currentScript&quot;in document?document.currentScript:function(){for(var t=document.getElementsByTagName(&quot;script&quot;),e=t.length;e--;)if(t[e].getAttribute(&quot;cf-hash&quot;))return t[e]}();if(t&amp;&amp;t.previousSibling){var e,r,n,i,c=t.previousSibling,a=c.getAttribute(&quot;data-cfemail&quot;);if(a){for(e=&quot;&quot;,r=parseInt(a.substr(0,2),16),n=2;a.length-n;n+=2)i=parseInt(a.substr(n,2),16)^r,e+=String.fromCharCode(i);e=document.createTextNode(e),c.parentNode.replaceChild(e,c)}}}catch(u){}}();/* ]]&gt; */&lt;/script&gt;\nFormat settings, CABAC           : Yes\nCodec ID                         : V_MPEG4/ISO/AVC\nDuration                         : 1h 55mn\nBit rate                         : 1 880 Kbps\nNominal bit rate                 : 2 002 Kbps\nWidth                            : 1 280 pixels\nHeight                           : 528 pixels\nDisplay aspect ratio             : 2.35:1\nOriginal display aspect ratio    : 2.35:1\nFrame rate                       : 23.976 fps\nOriginal frame rate              : 25.000 fps\nResolution                       : 8 bits\nStream size                      : 1.51 GiB (86%)\n\n___________________________________________________________________________\n\nAudio\nID                               : 2\nFormat                           : AC-3\nFormat/Info                      : Audio Coding 3\nCodec ID                         : A_AC3\nDuration                         : 1h 55mn\nBit rate mode                    : Constant\nBit rate                         : 256 Kbps\nChannel(s)                       : 2 channels\nChannel positions                : L R\nSampling rate                    : 44.1 KHz\nStream size                      : 211 MiB (12%)\nTitle                            : Hindi - By - Dj Vikas\n\n___________________________________________________________________________\n\nscreenshots \n &lt;a href=&quot;\nhttp://img198.imageshack.us/img198/2503/theincrediblesbluray720.jpg&quot; rel=&quot;nofollow&quot; target=&quot;_NEW&quot;&gt;\nhttp://img198.imageshack.us/img198/2503/theincrediblesbluray720.jpg&lt;/a&gt; &lt;a href=&quot;\nhttp://img180.imageshack.us/img180/2503/theincrediblesbluray720.jpg&quot; rel=&quot;nofollow&quot; target=&quot;_NEW&quot;&gt;\nhttp://img180.imageshack.us/img180/2503/theincrediblesbluray720.jpg&lt;/a&gt; &lt;a href=&quot;\nhttp://img20.imageshack.us/img20/2503/theincrediblesbluray720.jpg&quot; rel=&quot;nofollow&quot; target=&quot;_NEW&quot;&gt;\nhttp://img20.imageshack.us/img20/2503/theincrediblesbluray720.jpg&lt;/a&gt; &lt;a href=&quot;\nhttp://img408.imageshack.us/img408/2503/theincrediblesbluray720.jpg&quot; rel=&quot;nofollow&quot; target=&quot;_NEW&quot;&gt;\nhttp://img408.imageshack.us/img408/2503/theincrediblesbluray720.jpg&lt;/a&gt; &lt;a href=&quot;\nhttp://img41.imageshack.us/img41/2503/theincrediblesbluray720.jpg&quot; rel=&quot;nofollow&quot; target=&quot;_NEW&quot;&gt;\nhttp://img41.imageshack.us/img41/2503/theincrediblesbluray720.jpg&lt;/a&gt; &lt;a href=&quot;\nhttp://img52.imageshack.us/img52/2503/theincrediblesbluray720.jpg&quot; rel=&quot;nofollow&quot; target=&quot;_NEW&quot;&gt;\nhttp://img52.imageshack.us/img52/2503/theincrediblesbluray720.jpg&lt;/a&gt; &lt;a href=&quot;\nhttp://img99.imageshack.us/img99/2503/theincrediblesbluray720.jpg&quot; rel=&quot;nofollow&quot; target=&quot;_NEW&quot;&gt;\nhttp://img99.imageshack.us/img99/2503/theincrediblesbluray720.jpg&lt;/a&gt; &lt;a href=&quot;\nhttp://img84.imageshack.us/img84/2503/theincrediblesbluray720.jpg&quot; rel=&quot;nofollow&quot; target=&quot;_NEW&quot;&gt;\nhttp://img84.imageshack.us/img84/2503/theincrediblesbluray720.jpg&lt;/a&gt; &lt;a href=&quot;\nhttp://img189.imageshack.us/img189/2503/theincrediblesbluray720.jpg&quot; rel=&quot;nofollow&quot; target=&quot;_NEW&quot;&gt;\nhttp://img189.imageshack.us/img189/2503/theincrediblesbluray720.jpg&lt;/a&gt; &lt;a href=&quot;\nhttp://img267.imageshack.us/img267/2503/theincrediblesbluray720.jpg&quot; rel=&quot;nofollow&quot; target=&quot;_NEW&quot;&gt;\nhttp://img267.imageshack.us/img267/2503/theincrediblesbluray720.jpg&lt;/a&gt; &lt;a href=&quot;\nhttp://img401.imageshack.us/img401/2503/theincrediblesbluray720.jpg&quot; rel=&quot;nofollow&quot; target=&quot;_NEW&quot;&gt;\nhttp://img401.imageshack.us/img401/2503/theincrediblesbluray720.jpg&lt;/a&gt; &lt;a href=&quot;\nhttp://img23.imageshack.us/img23/2503/theincrediblesbluray720.jpg&quot; rel=&quot;nofollow&quot; target=&quot;_NEW&quot;&gt;\nhttp://img23.imageshack.us/img23/2503/theincrediblesbluray720.jpg&lt;/a&gt; &lt;a href=&quot;\nhttp://img69.imageshack.us/img69/2503/theincrediblesbluray720.jpg&quot; rel=&quot;nofollow&quot; target=&quot;_NEW&quot;&gt;\nhttp://img69.imageshack.us/img69/2503/theincrediblesbluray720.jpg&lt;/a&gt; &lt;a href=&quot;\nhttp://img687.imageshack.us/img687/2503/theincrediblesbluray720.jpg&quot; rel=&quot;nofollow&quot; target=&quot;_NEW&quot;&gt;\nhttp://img687.imageshack.us/img687/2503/theincrediblesbluray720.jpg&lt;/a&gt; &lt;a href=&quot;\nhttp://img63.imageshack.us/img63/2503/theincrediblesbluray720.jpg&quot; rel=&quot;nofollow&quot; target=&quot;_NEW&quot;&gt;\nhttp://img63.imageshack.us/img63/2503/theincrediblesbluray720.jpg&lt;/a&gt;\n","torrent":{"xt":"urn:btih:b327aae4030102e585921a950a4f15b504e45f75","amp;dn":"The.Incredibles.Hindi.Bluray.720p.DjVikas.HD+DESI+ROCKERS.","amp;tr":["udp%3A%2F%2Ftracker.openbittorrent.com%3A80","udp%3A%2F%2Fopen.demonii.com%3A1337","udp%3A%2F%2Ftracker.coppersurfer.tk%3A6969","udp%3A%2F%2Fexodus.desync.com%3A6969"],"infoHash":"b327aae4030102e585921a950a4f15b504e45f75","infoHashBuffer":{"type":"Buffer","data":[179,39,170,228,3,1,2,229,133,146,26,149,10,79,21,181,4,228,95,117]},"announce":[],"urlList":[]}}